<?xml version="1.0" standalone="no"?>
<!DOCTYPE svg PUBLIC "-//W3C//DTD SVG 20010904//EN"
 "http://www.w3.org/TR/2001/REC-SVG-20010904/DTD/svg10.dtd">
<svg version="1.0" xmlns="http://www.w3.org/2000/svg"
 width="500.000000pt" height="500.000000pt" viewBox="0 0 500.000000 500.000000"
 preserveAspectRatio="xMidYMid meet">

<g transform="translate(0.000000,500.000000) scale(0.100000,-0.100000)"
fill="#000000" stroke="none">
<path d="M2433 3640 c0 -25 2 -35 4 -22 2 12 2 32 0 45 -2 12 -4 2 -4 -23z"/>
<path d="M2676 3585 c-9 -26 -7 -32 5 -12 6 10 9 21 6 23 -2 3 -7 -2 -11 -11z"/>
<path d="M1935 3500 c27 -27 51 -50 54 -50 3 0 -17 23 -44 50 -27 28 -51 50
-54 50 -3 0 17 -22 44 -50z"/>
<path d="M2432 3530 c0 -14 2 -19 5 -12 2 6 2 18 0 25 -3 6 -5 1 -5 -13z"/>
<path d="M2236 3467 c3 -10 9 -15 12 -12 3 3 0 11 -7 18 -10 9 -11 8 -5 -6z"/>
<path d="M2432 3455 c0 -16 2 -22 5 -12 2 9 2 23 0 30 -3 6 -5 -1 -5 -18z"/>
<path d="M2889 3453 l-24 -28 28 24 c25 23 32 31 24 31 -2 0 -14 -12 -28 -27z"/>
<path d="M2331 3454 c0 -11 3 -14 6 -6 3 7 2 16 -1 19 -3 4 -6 -2 -5 -13z"/>
<path d="M2512 3440 c0 -14 2 -19 5 -12 2 6 2 18 0 25 -3 6 -5 1 -5 -13z"/>
<path d="M2261 3418 c-1 -12 31 -89 35 -85 3 2 -4 24 -15 48 -11 24 -20 41
-20 37z"/>
<path d="M2341 3404 c0 -11 3 -14 6 -6 3 7 2 16 -1 19 -3 4 -6 -2 -5 -13z"/>
<path d="M2030 3400 c0 -5 5 -10 11 -10 5 0 7 5 4 10 -3 6 -8 10 -11 10 -2 0
-4 -4 -4 -10z"/>
<path d="M2502 3390 c0 -14 2 -19 5 -12 2 6 2 18 0 25 -3 6 -5 1 -5 -13z"/>
<path d="M2596 3395 c-9 -26 -7 -32 5 -12 6 10 9 21 6 23 -2 3 -7 -2 -11 -11z"/>
<path d="M2200 3328 c28 -43 53 -78 55 -78 7 0 -53 92 -81 125 -14 17 -2 -5
26 -47z"/>
<path d="M2819 3383 c-13 -16 -12 -17 4 -4 16 13 21 21 13 21 -2 0 -10 -8 -17
-17z"/>
<path d="M2674 3378 c-4 -7 -23 -37 -41 -65 -19 -29 -31 -53 -29 -53 3 0 20
24 39 53 47 74 49 77 43 77 -3 0 -8 -6 -12 -12z"/>
<path d="M2352 3360 c0 -14 2 -19 5 -12 2 6 2 18 0 25 -3 6 -5 1 -5 -13z"/>
<path d="M2100 3325 c19 -19 38 -35 44 -35 5 0 -5 16 -24 35 -19 19 -38 35
-44 35 -5 0 5 -16 24 -35z"/>
<path d="M2492 3335 c0 -16 2 -22 5 -12 2 9 2 23 0 30 -3 6 -5 -1 -5 -18z"/>
<path d="M2720 3283 l-65 -68 68 65 c62 60 72 70 64 70 -1 0 -32 -30 -67 -67z"/>
<path d="M2361 3314 c0 -11 3 -14 6 -6 3 7 2 16 -1 19 -3 4 -6 -2 -5 -13z"/>
<path d="M2300 3315 c0 -5 5 -17 10 -25 5 -8 10 -10 10 -5 0 6 -5 17 -10 25
-5 8 -10 11 -10 5z"/>
<path d="M2482 3280 c0 -14 2 -19 5 -12 2 6 2 18 0 25 -3 6 -5 1 -5 -13z"/>
<path d="M2786 3245 c-27 -18 -54 -39 -60 -46 -6 -6 17 7 52 30 34 23 62 44
62 46 0 7 -1 7 -54 -30z"/>
<path d="M1870 3230 c8 -5 20 -10 25 -10 6 0 3 5 -5 10 -8 5 -19 10 -25 10 -5
0 -3 -5 5 -10z"/>
<path d="M2109 3202 c14 -11 38 -27 55 -37 l31 -17 -24 20 c-14 11 -38 27 -55
37 l-31 17 24 -20z"/>
<path d="M2887 3186 c-51 -21 -98 -49 -57 -34 59 22 106 42 115 50 14 12 6 10
-58 -16z"/>
<path d="M1970 3190 c0 -6 7 -10 15 -10 8 0 15 2 15 4 0 2 -7 6 -15 10 -8 3
-15 1 -15 -4z"/>
<path d="M2978 3113 c7 -3 16 -2 19 1 4 3 -2 6 -13 5 -11 0 -14 -3 -6 -6z"/>
<path d="M2900 3100 c-20 -6 -21 -8 -5 -8 11 0 31 4 45 8 20 6 21 8 5 8 -11 0
-31 -4 -45 -8z"/>
<path d="M2838 3083 c6 -2 18 -2 25 0 6 3 1 5 -13 5 -14 0 -19 -2 -12 -5z"/>
<path d="M2000 3070 c25 -8 87 -13 79 -6 -2 2 -26 6 -54 9 -34 4 -42 3 -25 -3z"/>
<path d="M1788 3003 c18 -2 45 -2 60 0 15 2 0 4 -33 4 -33 0 -45 -2 -27 -4z"/>
<path d="M1918 3003 c6 -2 18 -2 25 0 6 3 1 5 -13 5 -14 0 -19 -2 -12 -5z"/>
<path d="M1998 3003 c12 -2 32 -2 45 0 12 2 2 4 -23 4 -25 0 -35 -2 -22 -4z"/>
<path d="M2807 2993 c18 -2 50 -2 70 0 21 2 7 4 -32 4 -38 0 -55 -2 -38 -4z"/>
<path d="M2948 2993 c6 -2 18 -2 25 0 6 3 1 5 -13 5 -14 0 -19 -2 -12 -5z"/>
<path d="M3058 2993 c18 -2 45 -2 60 0 15 2 0 4 -33 4 -33 0 -45 -2 -27 -4z"/>
<path d="M1460 2535 l0 -305 144 0 c157 0 156 0 156 60 0 35 -13 40 -109 40
l-78 0 -7 236 c-4 131 -11 245 -17 255 -7 14 -21 19 -49 19 l-40 0 0 -305z"/>
<path d="M1806 2824 c-12 -30 -6 -388 7 -450 24 -111 71 -154 172 -154 83 0
124 22 155 85 24 48 25 60 28 255 2 113 0 221 -5 240 -9 33 -11 35 -54 35
l-44 0 -5 -236 c-5 -215 -7 -239 -24 -258 -21 -23 -90 -30 -102 -9 -4 6 -12
113 -17 237 -5 124 -13 236 -18 248 -7 19 -16 23 -48 23 -26 0 -41 -5 -45 -16z"/>
<path d="M2252 2828 c-9 -9 -12 -83 -12 -299 0 -321 -2 -312 72 -307 l43 3 3
185 3 185 22 -40 c20 -36 26 -40 62 -40 37 0 42 4 65 45 l25 45 5 -190 5 -190
54 -3 54 -3 -6 296 c-4 215 -9 300 -18 311 -8 10 -26 14 -52 12 l-39 -3 -46
-113 -45 -114 -46 114 -46 113 -45 3 c-26 2 -50 -2 -58 -10z"/>
<path d="M2810 2822 c-73 -38 -108 -187 -90 -380 10 -104 26 -149 69 -185 38
-32 80 -41 166 -35 79 5 110 25 145 94 24 47 25 57 25 219 0 159 -2 173 -24
218 -33 66 -75 87 -178 87 -56 0 -88 -5 -113 -18z m180 -82 c15 -27 25 -238
16 -324 -10 -87 -27 -106 -96 -106 -46 0 -50 2 -57 28 -10 35 -10 329 0 364
14 52 115 80 137 38z"/>
<path d="M3270 2820 c-47 -25 -70 -67 -72 -134 -2 -71 32 -122 115 -174 103
-65 117 -79 117 -122 0 -22 -7 -45 -16 -54 -24 -24 -85 -20 -128 9 -44 30 -57
31 -81 5 -48 -53 37 -121 164 -128 67 -3 80 -1 110 20 53 36 73 78 75 157 1
58 -3 72 -25 102 -15 19 -59 52 -99 74 -77 42 -120 84 -120 116 0 11 11 31 25
45 26 26 27 26 109 2 34 -11 40 -10 52 7 8 10 14 29 14 41 0 49 -167 74 -240
34z"/>
<path d="M2037 2023 c255 -2 671 -2 925 0 255 1 47 2 -462 2 -509 0 -717 -1
-463 -2z"/>
<path d="M2539 1886 c-59 -29 -41 -117 24 -115 27 2 28 2 7 6 -36 7 -50 22
-50 53 0 32 14 47 50 52 19 2 21 5 9 10 -9 3 -27 1 -40 -6z"/>
<path d="M3058 1886 c-17 -8 -24 -21 -26 -49 -4 -48 11 -67 52 -66 l31 1 -32
9 c-23 7 -35 17 -39 36 -9 36 7 57 47 63 29 5 31 6 12 12 -12 3 -32 0 -45 -6z"/>
<path d="M3390 1892 c-64 -20 -46 -122 21 -122 35 0 49 18 49 61 0 45 -32 73
-70 61z m54 -34 c14 -23 -4 -72 -27 -76 -10 -2 -24 2 -32 8 -15 13 -21 71 -8
84 12 12 55 2 67 -16z"/>
<path d="M3570 1892 c-64 -20 -46 -122 21 -122 35 0 49 18 49 61 0 45 -32 73
-70 61z m54 -34 c14 -23 -4 -72 -27 -76 -10 -2 -24 2 -32 8 -15 13 -21 71 -8
84 12 12 55 2 67 -16z"/>
<path d="M1232 1833 l-2 -63 38 1 c36 1 36 2 7 8 -28 6 -30 10 -36 61 l-6 55
-1 -62z"/>
<path d="M1370 1835 c-13 -31 -20 -59 -16 -62 4 -4 9 3 13 15 4 16 13 22 33
22 20 0 29 -6 33 -22 4 -12 9 -20 12 -16 8 7 -34 118 -45 118 -4 0 -18 -25
-30 -55z m44 9 c9 -23 8 -24 -14 -24 -11 0 -20 2 -20 4 0 12 13 36 20 36 4 0
11 -7 14 -16z"/>
<path d="M1518 1883 c20 -4 22 -10 22 -59 0 -30 5 -54 10 -54 6 0 10 24 10 54
0 44 4 55 18 59 9 3 -5 5 -33 4 -27 0 -40 -2 -27 -4z"/>
<path d="M1663 1830 c0 -36 2 -50 4 -32 2 17 2 47 0 65 -2 17 -4 3 -4 -33z"/>
<path d="M1752 1828 l1 -63 6 52 6 52 30 -50 c16 -27 33 -49 37 -49 4 0 7 28
6 63 l-1 62 -6 -50 -6 -50 -28 48 c-16 26 -33 47 -38 47 -5 0 -8 -28 -7 -62z"/>
<path d="M2010 1830 l0 -60 33 0 c40 0 67 25 67 63 0 35 -25 57 -66 57 l-34 0
0 -60z m66 42 c24 -15 26 -50 5 -71 -36 -36 -51 -27 -51 29 0 41 3 50 18 50 9
0 22 -4 28 -8z"/>
<path d="M2190 1835 c-13 -31 -20 -59 -16 -62 4 -4 9 3 13 15 4 16 13 22 33
22 20 0 29 -6 33 -22 4 -12 9 -20 12 -16 8 7 -34 118 -45 118 -4 0 -18 -25
-30 -55z m44 9 c9 -23 8 -24 -14 -24 -11 0 -20 2 -20 4 0 12 13 36 20 36 4 0
11 -7 14 -16z"/>
<path d="M2342 1828 l1 -63 6 52 6 52 30 -50 c16 -27 33 -49 37 -49 4 0 7 28
6 63 l-1 62 -6 -50 -6 -50 -28 48 c-16 26 -33 47 -38 47 -5 0 -8 -28 -7 -62z"/>
<path d="M2660 1830 l0 -60 38 1 c30 2 32 3 10 6 -22 3 -28 10 -28 28 0 18 6
25 28 28 l27 4 -27 2 c-21 1 -28 6 -28 20 0 14 8 21 28 24 22 3 20 4 -10 6
l-38 1 0 -60z"/>
<path d="M2897 1883 c-15 -15 -5 -39 24 -56 36 -20 34 -42 -4 -42 -15 1 -27
-3 -27 -8 0 -4 15 -7 33 -5 27 2 32 7 32 28 0 16 -8 29 -25 37 -34 17 -32 36
5 44 l30 7 -31 1 c-17 0 -34 -2 -37 -6z"/>
<path d="M3193 1830 c0 -36 2 -50 4 -32 4 29 7 32 38 32 31 0 34 -3 38 -32 2
-18 4 -4 4 32 0 36 -2 53 -4 38 -4 -24 -9 -28 -38 -28 -29 0 -34 4 -38 28 -2
15 -4 -2 -4 -38z"/>
<path d="M3710 1830 l0 -60 38 1 c30 2 32 3 10 6 -27 4 -28 7 -28 59 0 30 -4
54 -10 54 -6 0 -10 -27 -10 -60z"/>
</g>
</svg>
